#!OML:ASF F:\VICON\USERDATA\INSTALL\rory3\rory3.ASF
:FULLY-SPECIFIED
:DEGREES
525
root 8.61131 17.1296 1.19274 5.27896 -45.4635 1.58737
lowerback 7.99857 0.901037 -6.64115
upperback 0.189437 0.552575 -0.495973
thorax -4.35756 0.400204 3.15295
lowerneck -19.5538 -0.404506 -12.5687
upperneck 24.4675 2.15204 4.44685
head 10.9923 0.315898 4.04071
rclavicle 5.43676e-014 1.86858e-014
rhumerus -12.5455 1.8037 -77.5805
rradius 141.419
rwrist -2.22869
rhand -23.7357 23.7785
rfingers 7.12502
rthumb 2.73261 -6.18374
lclavicle 5.43676e-014 1.86858e-014
lhumerus -7.48439 -9.43351 87.1853
lradius 131.729
lwrist -3.09547
lhand -11.07 7.69594
lfingers 7.12502
lthumb 14.953 37.1361
rfemur -14.2272 -0.298236 12.7929
rtibia 49.6514
rfoot -27.6309 -7.22486
rtoes -15.7775
lfemur -19.8231 -6.82155 -1.02087
ltibia 37.4029
lfoot -7.41589 3.50531
ltoes -34.9597
526
root 8.51597 17.2387 1.13187 5.84459 -44.8486 0.861712
lowerback 7.71405 0.750163 -6.16841
upperback 0.17206 0.420332 -0.44047
thorax -4.19761 0.3222 2.96239
lowerneck -19.2609 -0.554156 -12.7165
upperneck 24.4633 1.71756 5.27072
head 10.9567 0.209274 4.30611
rclavicle -9.24349e-015 1.43125e-014
rhumerus -12.8888 1.69658 -77.4943
rradius 141.406
rwrist -2.14176
rhand -23.8899 23.7174
rfingers 7.12502
rthumb 2.58368 -6.24674
lclavicle -9.24349e-015 1.43125e-014
lhumerus -8.69228 -9.67754 87.297
lradius 131.875
lwrist -2.72428
lhand -11.1324 7.88403
lfingers 7.12502
lthumb 14.8929 37.3287
rfemur -14.024 -0.860286 13.6521
rtibia 49.1712
rfoot -25.4009 -6.90125
rtoes -15.8894
lfemur -20.3426 -6.25945 -0.866879
ltibia 38.1504
lfoot -5.1174 5.29185
ltoes -31.9428
527
root 8.43062 17.345 1.07956 6.24829 -44.3434 0.343975
lowerback 7.41309 0.618772 -5.62971
upperback 0.272336 0.313282 -0.549218
thorax -3.90848 0.247977 2.56021
lowerneck -19.4539 -0.751681 -12.534
upperneck 24.5862 1.23608 5.89872
head 11.0776 0.084494 4.45124
rclavicle 1.78906e-015 2.3059e-014
rhumerus -12.9962 1.52242 -77.6267
rradius 141.308
rwrist -1.89436
rhand -24.0939 23.6873
rfingers 7.12502
rthumb 2.38663 -6.27913
lclavicle 1.78906e-015 2.3059e-014
lhumerus -9.62011 -9.91718 87.0867
lradius 131.955
lwrist -2.27151
lhand -11.0956 7.85278
lfingers 7.12502
lthumb 14.9284 37.2948
rfemur -13.9437 -1.3911 14.2426
rtibia 48.8609
rfoot -23.2026 -6.44596
rtoes -15.8931
lfemur -20.8599 -5.56196 -1.01583
ltibia 39.1679
lfoot -3.81358 7.39224
ltoes -29.6204
528
root 8.35707 17.4456 1.02736 6.40871 -43.837 0.0262931
lowerback 7.36486 0.460321 -5.23621
upperback 0.329712 0.140441 -0.570759
thorax -3.8049 0.151597 2.33576
lowerneck -19.5068 -0.853291 -12.4049
upperneck 24.5927 0.94362 6.31265
head 11.1142 0.0171887 4.54509
rclavicle -5.56597e-015 -1.19271e-014
rhumerus -13.0873 1.47357 -77.5324
rradius 141.231
rwrist -1.99296
rhand -23.9145 23.5733
rfingers 7.12502
rthumb 2.55994 -6.39111
lclavicle -5.56597e-015 -1.19271e-014
lhumerus -10.6929 -10.0935 87.1107
lradius 132.03
lwrist -2.03181
lhand -11.2631 7.97309
lfingers 7.12502
lthumb 14.7671 37.427
rfemur -13.9176 -1.81011 14.5669
rtibia 48.7426
rfoot -21.0913 -5.66669
rtoes -14.4992
lfemur -21.3111 -4.61916 -1.4323
ltibia 40.4945
lfoot -3.92004 8.4456
ltoes -29.1624
529
root 8.28975 17.5479 0.978335 6.65175 -43.3149 -0.407944
lowerback 7.38396 0.308842 -4.72111
upperback 0.312794 -0.0148267 -0.485787
thorax -3.82016 0.0675312 2.15126
lowerneck -19.3909 -0.929197 -12.4119
upperneck 24.6021 0.702884 6.73677
head 11.1149 -0.0405201 4.67031
rclavicle -1.10822e-013 -6.75868e-015
rhumerus -13.2756 1.4266 -77.1473
rradius 141.171
rwrist -2.30194
rhand -23.7103 23.5073
rfingers 7.12502
rthumb 2.75715 -6.4546
lclavicle -1.10822e-013 -6.75868e-015
lhumerus -12.0113 -10.1805 87.5288
lradius 132.139
lwrist -1.88261
lhand -10.9261 6.98516
lfingers 7.12502
lthumb 15.0916 36.415
rfemur -14.0456 -2.48771 14.8614
rtibia 48.8181
rfoot -18.5592 -4.87734
rtoes -13.6653
lfemur -21.8286 -3.48472 -1.86996
ltibia 42.1106
lfoot -4.62684 7.5304
ltoes -29.2689
530
root 8.22886 17.6456 0.93316 6.82021 -42.8242 -1.03839
lowerback 7.65 0.176549 -4.04344
upperback 0.340404 -0.13816 -0.31145
thorax -3.93202 -0.00185184 1.96533
lowerneck -19.3701 -1.00724 -12.2881
upperneck 24.6769 0.490693 6.93758
head 11.1598 -0.102864 4.69773
rclavicle 6.85807e-014 -3.18055e-015
rhumerus -13.4188 1.4155 -76.6987
rradius 141.016
rwrist -2.34221
rhand -23.8087 23.5374
rfingers 7.12502
rthumb 2.66208 -6.42569
lclavicle 6.85807e-014 -3.18055e-015
lhumerus -13.3164 -10.0593 88.0886
lradius 132.154
lwrist -1.76533
lhand -10.5349 6.25727
lfingers 7.12502
lthumb 15.4685 35.6584
rfemur -14.0975 -3.27406 15.2181
rtibia 49.0773
rfoot -15.6159 -4.34912
rtoes -12.4834
lfemur -22.2274 -2.37949 -2.26177
ltibia 44.0083
lfoot -5.44492 5.5875
ltoes -28.0089
531
root 8.17483 17.7324 0.888516 6.88065 -42.3904 -1.59835
lowerback 8.05953 0.0714008 -3.46045
upperback 0.369519 -0.23321 -0.0758267
thorax -4.12605 -0.0542314 1.89439
lowerneck -19.4839 -1.119 -12.1023
upperneck 24.7975 0.286796 6.92795
head 11.2506 -0.181967 4.64015
rclavicle 6.4605e-014 -1.98785e-014
rhumerus -13.4565 1.39951 -76.1726
rradius 140.82
rwrist -2.15866
rhand -24.017 23.5227
rfingers 7.12502
rthumb 2.46094 -6.44289
lclavicle 6.4605e-014 -1.98785e-014
lhumerus -14.5427 -9.96447 88.726
lradius 132.082
lwrist -1.57487
lhand -10.2816 5.73634
lfingers 7.12502
lthumb 15.7124 35.1185
rfemur -14.2537 -4.00254 15.4496
rtibia 49.4935
rfoot -12.392 -3.92726
rtoes -9.8054
lfemur -22.6318 -1.34387 -2.75672
ltibia 46.1529
lfoot -6.33344 3.56553
ltoes -26.0612
532
root 8.12175 17.8132 0.847507 6.84516 -42.159 -1.85608
lowerback 7.6179 0.185676 -2.45093
upperback 0.914028 0.0191917 -0.341852
thorax -3.32705 0.0343901 1.02239
lowerneck -19.7886 -1.53245 -11.9353
upperneck 24.5 -0.438168 7.41736
head 11.2767 -0.416967 4.68558
rclavicle 2.00773e-014 -3.97569e-015
rhumerus -12.9247 0.258527 -75.9016
rradius 140.65
rwrist -1.90736
rhand -23.9802 23.6136
rfingers 7.12502
rthumb 2.49646 -6.35156
lclavicle 2.00773e-014 -3.97569e-015
lhumerus -14.6903 -11.0062 88.8336
lradius 131.824
lwrist -1.76026
lhand -10.9185 5.92246
lfingers 7.12502
lthumb 15.099 35.3517
rfemur -14.6836 -4.54833 15.3401
rtibia 50.058
rfoot -8.94305 -3.72129
rtoes -8.50366
lfemur -23.0151 -0.249703 -3.57736
ltibia 48.4329
lfoot -7.17585 1.6463
ltoes -26.2768
533
root 8.06924 17.8913 0.80673 6.77837 -42.1847 -1.97458
lowerback 7.72488 0.164809 -2.24633
upperback 0.907618 0.0127112 -0.151911
thorax -3.39315 0.0305318 1.10449
lowerneck -19.6283 -1.61373 -12.0627
upperneck 24.5059 -0.609569 7.68116
head 11.2671 -0.476414 4.78024
rclavicle -9.50191e-014 3.26007e-014
rhumerus -12.8907 0.191641 -75.2178
rradius 140.505
rwrist -1.94736
rhand -23.7663 23.7029
rfingers 7.12502
rthumb 2.70303 -6.25968
lclavicle -9.50191e-014 3.26007e-014
lhumerus -15.8947 -11.2191 89.5158
lradius 131.735
lwrist -2.64558
lhand -11.4445 6.31205
lfingers 7.12502
lthumb 14.5923 35.7787
rfemur -15.3905 -4.84247 15.0451
rtibia 50.8094
rfoot -5.27031 -3.56546
rtoes -7.37375
lfemur -23.2887 1.05261 -4.59393
ltibia 50.692
lfoot -7.85399 -0.36115
ltoes -27.5046
534
root 8.01619 17.9682 0.764913 6.74367 -42.3477 -2.16688
lowerback 8.15063 0.0739071 -2.44447
upperback 0.716085 -0.118887 0.344086
thorax -3.82373 -0.0211383 1.74512
lowerneck -19.6149 -1.54466 -12.1367
upperneck 24.8078 -0.486103 7.61982
head 11.3647 -0.446254 4.79907
rclavicle 7.27552e-014 -2.14687e-014
rhumerus -12.9215 0.671166 -74.314
rradius 140.377
rwrist -2.17685
rhand -23.6247 23.6219
rfingers 7.12502
rthumb 2.83982 -6.3389
lclavicle 7.27552e-014 -2.14687e-014
lhumerus -17.4654 -10.7174 90.4923
lradius 131.742
lwrist -2.89576
lhand -11.2323 6.1176
lfingers 7.12502
lthumb 14.7967 35.5694
rfemur -16.2423 -5.09215 14.7882
rtibia 51.7485
rfoot -1.62318 -3.28692
rtoes -6.57469
lfemur -23.4149 2.55658 -5.5589
ltibia 52.7938
lfoot -8.23521 -2.61311
ltoes -27.9248
535
root 7.95979 18.0367 0.720665 6.59015 -42.6435 -2.2222
lowerback 8.52317 0.0573945 -2.88155
upperback 0.668379 -0.17406 0.787787
thorax -4.07681 -0.0334615 2.4611
lowerneck -19.8672 -1.49653 -11.9896
upperneck 25.002 -0.421032 7.55101
head 11.4795 -0.414598 4.76876
rclavicle 7.7526e-015 -2.80286e-014
rhumerus -12.6973 1.04969 -73.6291
rradius 140.134
rwrist -2.09753
rhand -23.8017 23.5191
rfingers 7.12502
rthumb 2.66889 -6.44392
lclavicle 7.7526e-015 -2.80286e-014
lhumerus -18.6594 -10.1693 91.3062
lradius 131.787
lwrist -2.41063
lhand -11.0937 6.41963
lfingers 7.12502
lthumb 14.9302 35.8615
rfemur -17.1844 -5.15065 14.4105
rtibia 52.9125
rfoot 1.6665 -2.7785
rtoes -6.57272
lfemur -23.3277 4.13056 -6.61287
ltibia 54.6127
lfoot -8.29551 -4.73245
ltoes -28.5282
536
root 7.90466 18.0886 0.676344 6.17415 -43.1185 -1.93952
lowerback 8.69807 0.251342 -3.22223
upperback 0.841882 0.0487632 0.858231
thorax -4.00878 0.0790211 2.7005
lowerneck -20.1935 -1.63546 -11.6343
upperneck 24.944 -0.720984 7.6523
head 11.554 -0.495695 4.70475
rclavicle 3.57067e-014 -1.39149e-015
rhumerus -12.348 0.832553 -73.2721
rradius 139.819
rwrist -1.7402
rhand -24.3249 23.4616
rfingers 7.12502
rthumb 2.16357 -6.50715
lclavicle 3.57067e-014 -1.39149e-015
lhumerus -19.2367 -10.2618 91.7165
lradius 131.686
lwrist -1.84491
lhand -11.1844 6.77528
lfingers 7.12502
lthumb 14.8428 36.2237
rfemur -18.2398 -4.96722 13.7232
rtibia 54.2899
rfoot 4.61426 -1.69873
rtoes -5.91039
lfemur -22.9901 5.66634 -7.95828
ltibia 56.0546
lfoot -8.11056 -6.28696
ltoes -29.3552
